<svg width="24" height="24" viewBox="0 0 24 24" fill="none" xmlns="http://www.w3.org/2000/svg">
<path d="M11.8889 1L11.8056 1.02778L4.69444 2.69444L4 2.86111V20.8611L4.72222 20.9722L11.8333 22.3056L11.9167 22.3333H13.7778V1H11.8889ZM15.5556 2.77778V4.55556H18.2222V18.7778H15.5556V20.5556H20V2.77778H15.5556ZM12 2.80556V20.5556L5.77778 19.3889V4.25L12 2.80556ZM10.5278 10.7778C10.2014 10.7778 9.91667 11.1771 9.91667 11.6667C9.91667 12.1562 10.2014 12.5556 10.5278 12.5556C10.8542 12.5556 11.1111 12.1562 11.1111 11.6667C11.1111 11.1771 10.8542 10.7778 10.5278 10.7778Z" fill="#D8B96B"/>
</svg>
