<svg width="24" height="24" viewBox="0 0 24 24" fill="none" xmlns="http://www.w3.org/2000/svg">
<path d="M3.32814 23.5V5.33001C3.32682 4.82752 3.42466 4.32971 3.61604 3.86509C3.80743 3.40047 4.0886 2.97818 4.44345 2.6224C4.7983 2.26662 5.21986 1.98434 5.68397 1.79175C6.14809 1.59915 6.64565 1.50001 7.14814 1.50001H11.9281C12.4315 1.49869 12.9301 1.59686 13.3954 1.78887C13.8606 1.98088 14.2834 2.26294 14.6393 2.61885C14.9952 2.97476 15.2773 3.3975 15.4693 3.86278C15.6613 4.32805 15.7595 4.82668 15.7581 5.33001" stroke="#D8B96B" stroke-width="1.91" stroke-miterlimit="10"/>
<path d="M10.9805 7.24008L15.7605 5.33008L20.5405 7.24008V10.1101H10.9805V7.24008Z" stroke="#D8B96B" stroke-width="1.91" stroke-miterlimit="10"/>
<path d="M11.9297 12.9805V14.8905" stroke="#D8B96B" stroke-width="1.91" stroke-miterlimit="10"/>
<path d="M15.7617 12.9805V14.8905" stroke="#D8B96B" stroke-width="1.91" stroke-miterlimit="10"/>
<path d="M19.5898 12.9805V14.8905" stroke="#D8B96B" stroke-width="1.91" stroke-miterlimit="10"/>
<path d="M11.9297 20.6309V22.5409" stroke="#D8B96B" stroke-width="1.91" stroke-miterlimit="10"/>
<path d="M15.7617 20.6309V22.5409" stroke="#D8B96B" stroke-width="1.91" stroke-miterlimit="10"/>
<path d="M19.5898 20.6309V22.5409" stroke="#D8B96B" stroke-width="1.91" stroke-miterlimit="10"/>
<path d="M13.8516 16.8008V18.7208" stroke="#D8B96B" stroke-width="1.91" stroke-miterlimit="10"/>
<path d="M17.6719 16.8008V18.7208" stroke="#D8B96B" stroke-width="1.91" stroke-miterlimit="10"/>
<path d="M0.460938 19.6699H6.20094" stroke="#D8B96B" stroke-width="1.91" stroke-miterlimit="10"/>
</svg>
