<svg width="24" height="24" viewBox="0 0 24 24" fill="none" xmlns="http://www.w3.org/2000/svg">
<path d="M20.76 18.6808H3.24C2.77853 18.6808 2.33595 18.4975 2.00964 18.1711C1.68332 17.8448 1.5 17.4023 1.5 16.9408C1.49952 16.6084 1.59319 16.2826 1.77016 16.0012C1.94713 15.7198 2.20018 15.4943 2.5 15.3508L12 11.0508L21.48 15.3508C21.7798 15.4943 22.0329 15.7198 22.2098 16.0012C22.3868 16.2826 22.4805 16.6084 22.48 16.9408C22.48 17.3988 22.2995 17.8384 21.9775 18.1641C21.6555 18.4899 21.218 18.6755 20.76 18.6808Z" stroke="#D8B96B" stroke-width="1.91" stroke-miterlimit="10"/>
<path d="M11.9991 11.0508V10.7908C12.0163 10.3919 12.1276 10.0028 12.324 9.65515C12.5204 9.30754 12.7963 9.01135 13.1291 8.79079C13.3998 8.60261 13.6172 8.34756 13.7601 8.05047C13.903 7.75337 13.9666 7.42433 13.9447 7.09538C13.9227 6.76642 13.816 6.44875 13.6349 6.17326C13.4538 5.89778 13.2045 5.67386 12.9112 5.5233C12.6179 5.37274 12.2906 5.30067 11.9612 5.31408C11.6318 5.3275 11.3114 5.42596 11.0313 5.59987C10.7513 5.77379 10.521 6.01724 10.3629 6.30654C10.2048 6.59584 10.1242 6.92114 10.1291 7.25079" stroke="#D8B96B" stroke-width="1.91" stroke-miterlimit="10"/>
</svg>
