<svg width="24" height="24" viewBox="0 0 24 24" fill="none" xmlns="http://www.w3.org/2000/svg">
<path d="M12.5 1L3.38542 5.05143C2.54661 5.42465 2 6.26346 2 7.18197V22.1094H4.33333V7.18424V7.18197L12.5 3.55208L20.6667 7.18197V22.1094H23V7.18197C23 6.26346 22.4534 5.42465 21.6146 5.05143L21.6123 5.04915L12.5 1ZM10.5381 9.27604C9.60475 9.27604 8.76138 9.83358 8.39388 10.6911L6.66667 14.722V19.776V20.9427C6.66667 21.5867 7.18933 22.1094 7.83333 22.1094H9C9.644 22.1094 10.1667 21.5867 10.1667 20.9427H14.8333C14.8333 21.5867 15.356 22.1094 16 22.1094H17.1667C17.8107 22.1094 18.3333 21.5867 18.3333 20.9427V19.776V14.722L16.6061 10.6911C16.2386 9.83358 15.3952 9.27604 14.4619 9.27604H10.5381ZM10.5381 11.6094H14.4619L15.4622 13.9427H9.53776L10.5381 11.6094ZM9 16.276H16V18.6094H9V16.276Z" fill="#D8B96B"/>
</svg>
