<svg width="24" height="24" viewBox="0 0 24 24" fill="none" xmlns="http://www.w3.org/2000/svg">
<g clip-path="url(#clip0_79_58)">
<path d="M23.2972 8.77042H19.6538C20.0673 8.15318 20.3248 7.43755 20.3949 6.68027C20.4837 6.56258 20.5371 6.41654 20.5371 6.25771C20.5371 5.86958 20.2224 5.55491 19.8343 5.55491H19.4092C19.3845 4.65576 18.7945 3.89581 17.9823 3.61821C17.8325 2.60141 16.9545 1.81836 15.8967 1.81836C14.8389 1.81836 13.9609 2.60141 13.8111 3.61821C12.9989 3.89581 12.4089 4.65576 12.3842 5.55491H11.9591C11.5709 5.55491 11.2563 5.86958 11.2563 6.25771C11.2563 6.41654 11.3096 6.56253 11.3984 6.68022C11.4685 7.43751 11.726 8.15318 12.1396 8.77042H9.93532C9.99735 8.51671 10.0295 8.2548 10.0295 7.98859C10.0295 7.38213 9.86026 6.79023 9.54742 6.27804C9.2306 5.81813 8.82261 5.38854 8.85588 4.78058V4.35469H8.85812C9.24625 4.35469 9.56092 4.04002 9.56092 3.6519C9.56092 3.26377 9.24625 2.9491 8.85812 2.9491H5.33929C4.95117 2.9491 4.6365 3.26377 4.6365 3.6519V4.78048C4.67277 5.38503 4.2331 5.84507 3.91923 6.32058C3.61806 6.83095 3.45802 7.41717 3.46298 8.01642C3.46514 8.27275 3.49737 8.52533 3.55795 8.77042H0.702792C0.314663 8.77042 0 9.08508 0 9.47321V12.2844C0 12.6725 0.314663 12.9872 0.702792 12.9872H5.83092C6.15739 14.5892 7.57717 15.7983 9.27413 15.7983H9.89165V20.7762H6.71536C6.32723 20.7762 6.01257 21.0908 6.01257 21.479C6.01257 21.8671 6.32723 22.1817 6.71536 22.1817H17.2847C17.6728 22.1817 17.9875 21.8671 17.9875 21.479C17.9875 21.0908 17.6728 20.7762 17.2847 20.7762H14.1084V15.7983H14.7259C16.4229 15.7983 17.8427 14.5892 18.1692 12.9872H23.2973C23.6854 12.9872 24 12.6725 24 12.2844V9.47321C24 9.08508 23.6853 8.77042 23.2972 8.77042ZM17.3023 4.91064C17.6701 4.91064 17.9723 5.19476 18.0021 5.55496H16.6025C16.6324 5.19476 16.9345 4.91064 17.3023 4.91064ZM15.8967 3.22394C16.1851 3.22394 16.4332 3.39866 16.5414 3.64768C16.3025 3.74049 16.0845 3.87534 15.8967 4.04363C15.709 3.87538 15.491 3.74049 15.252 3.64768C15.3602 3.39866 15.6083 3.22394 15.8967 3.22394ZM14.4911 4.91064C14.8589 4.91064 15.1611 5.19476 15.191 5.55496H13.7913C13.8212 5.19476 14.1233 4.91064 14.4911 4.91064ZM12.8642 6.9605H18.9292C18.763 7.68273 18.3435 8.32466 17.7336 8.77042H14.0598C13.4499 8.32466 13.0303 7.68273 12.8642 6.9605ZM6.04218 4.35469H7.45039V4.78058C7.45039 5.18515 7.52943 5.58181 7.67865 5.94904H5.80984C5.96178 5.5782 6.04218 5.18136 6.04218 4.78048V4.35469ZM4.86861 8.0047C4.86674 7.78154 4.90478 7.56152 4.979 7.35462H8.51329C8.58577 7.55656 8.62395 7.77091 8.62395 7.98859C8.62395 8.2615 8.56548 8.52669 8.45336 8.77042H5.04215C4.93032 8.53086 4.87086 8.27111 4.86861 8.0047ZM12.7028 20.7762H11.2972V15.7983H12.7028V20.7762ZM14.7259 14.3928H9.27413C8.35792 14.3928 7.5768 13.8052 7.28668 12.9872H16.7134C16.4233 13.8052 15.6421 14.3928 14.7259 14.3928ZM22.5944 11.5816H1.40558V10.176H22.5944V11.5816Z" fill="#D8B96B"/>
</g>
<defs>
<clipPath id="clip0_79_58">
<rect width="24" height="24" fill="white"/>
</clipPath>
</defs>
</svg>
