<svg width="68" height="68" viewBox="0 0 68 68" fill="none" xmlns="http://www.w3.org/2000/svg">
<path d="M8.5 8.5C8.5 7.93641 8.72388 7.39591 9.1224 6.9974C9.52091 6.59888 10.0614 6.375 10.625 6.375H57.375C57.9386 6.375 58.4791 6.59888 58.8776 6.9974C59.2761 7.39591 59.5 7.93641 59.5 8.5C59.5 9.06359 59.2761 9.60409 58.8776 10.0026C58.4791 10.4011 57.9386 10.625 57.375 10.625H51C51 11.8065 50.1415 12.75 49.0663 12.75H47.8125V19.3163C49.6188 19.805 50.9575 21.4837 50.9575 23.4387C50.9575 24.9177 50.1925 26.2268 49.0386 26.9875L50.9936 29.75H60.5327C60.818 29.7477 61.0927 29.858 61.2971 30.0569C61.5016 30.2558 61.6194 30.5273 61.625 30.8125C61.625 30.9527 61.5972 31.0916 61.5433 31.2211C61.4894 31.3505 61.4104 31.468 61.3108 31.5668C61.2112 31.6656 61.0931 31.7437 60.9632 31.7966C60.8333 31.8495 60.6942 31.8761 60.554 31.875H59.5V38.25H60.5327C60.818 38.2477 61.0927 38.358 61.2971 38.5569C61.5016 38.7558 61.6194 39.0273 61.625 39.3125C61.6194 39.5977 61.5016 39.8692 61.2971 40.0681C61.0927 40.267 60.818 40.3773 60.5327 40.375H58.3695C58.3989 40.5694 58.3731 40.7681 58.2949 40.9485C58.2168 41.1288 58.0895 41.2836 57.9275 41.395C57.7363 41.5225 57.5237 41.5863 57.3112 41.5863C56.9712 41.5863 56.6525 41.4375 56.44 41.14L55.8981 40.375H37.5169L36.975 41.14C36.7625 41.4375 36.4438 41.5863 36.1038 41.5863C35.8913 41.5863 35.6788 41.5225 35.4875 41.395C35.3256 41.2836 35.1982 41.1288 35.1201 40.9485C35.0419 40.7681 35.0161 40.5694 35.0455 40.375H32.9673C32.682 40.3773 32.4073 40.267 32.2029 40.0681C31.9984 39.8692 31.8806 39.5977 31.875 39.3125C31.875 38.7303 32.368 38.25 32.9673 38.25H34V31.875H32.9673C32.682 31.8773 32.4073 31.767 32.2029 31.5681C31.9984 31.3692 31.8806 31.0977 31.875 30.8125C31.875 30.2303 32.368 29.75 32.9673 29.75H42.4235L44.3785 26.9875C43.7896 26.6012 43.3058 26.0748 42.9705 25.4554C42.6352 24.836 42.4589 24.1431 42.4575 23.4387C42.4575 22.8437 42.9462 22.3762 43.52 22.3762C44.115 22.3762 44.5825 22.8437 44.5825 23.4387C44.5825 24.2037 44.9926 24.8795 45.6046 25.2535L45.7852 24.9985C45.8317 24.9206 45.8881 24.8492 45.9531 24.786C46.0515 24.686 46.169 24.6068 46.2986 24.5531C46.4282 24.4995 46.5672 24.4724 46.7075 24.4736C46.9837 24.4715 47.26 24.5799 47.4619 24.786C47.5276 24.8491 47.5848 24.9205 47.6319 24.9985L47.8104 25.2535C48.4224 24.8795 48.8325 24.2037 48.8325 23.4387C48.8325 22.27 47.9188 21.335 46.75 21.3137C46.3888 21.3137 46.0488 21.1225 45.8575 20.825C45.7318 20.6603 45.6645 20.4584 45.6663 20.2512C45.6663 20.1662 45.6663 20.1025 45.6875 20.0175V12.75H44.4338C43.3585 12.75 42.5 11.8065 42.5 10.625H29.75V55.25H31.3438C32.81 55.25 34 56.44 34 57.9063V59.5H59.5213C61.8588 59.5 63.75 61.4019 63.75 63.75H4.25C4.25 61.4019 6.14125 59.5 8.47875 59.5H10.625V57.9063C10.625 56.44 11.815 55.25 13.2813 55.25H14.875V10.625H10.625C10.0614 10.625 9.52091 10.4011 9.1224 10.0026C8.72388 9.60409 8.5 9.06359 8.5 8.5ZM17 14.875V19.5309L26.3118 14.875H17ZM18.3133 55.25H27.625V50.5941L18.3133 55.25ZM26.3118 48.875H17V53.5309L26.3118 48.875ZM18.3133 21.25H27.625V16.5941L18.3133 21.25ZM26.3118 23.375H17V28.0309L26.3118 23.375ZM18.3133 29.75H27.625V25.0941L18.3133 29.75ZM26.3118 31.875H17V36.5309L26.3118 31.875ZM18.3133 38.25H27.625V33.5941L18.3133 38.25ZM26.3118 40.375H17V45.0309L26.3118 40.375ZM18.3133 46.75H27.625V42.0941L18.3133 46.75ZM46.4993 27.6845L45.0373 29.75H48.3778L46.9157 27.6845C46.777 27.6913 46.638 27.6913 46.4993 27.6845ZM40.9169 31.875H36.125V38.25H36.4055L40.9169 31.875ZM39.0214 38.25H54.3936L49.8823 31.875H43.5328L39.0214 38.25ZM52.496 31.875L57.0095 38.25H57.375V31.875H52.496Z" fill="#D8B96B"/>
</svg>
