<svg width="68" height="68" viewBox="0 0 68 68" fill="none" xmlns="http://www.w3.org/2000/svg">
<g clip-path="url(#clip0_79_99)">
<path d="M17 32.8848V50.9992H35.1144L31.3367 47.2214H20.7778V36.6625L17 32.8848Z" fill="#D8B96B"/>
<path d="M65.8651 60.9913L60.444 55.4946V60.4435H7.55515V52.6046H11.3329V49.5824H7.55515V37.0213H11.3329V33.9991H7.55515V21.9102H11.3329V18.8879H7.55515V8.32905L37.664 38.2679V32.9413L7.00738 2.43572C6.74318 2.16933 6.40563 1.98765 6.03777 1.91386C5.66992 1.84006 5.28842 1.87748 4.94191 2.02135C4.59541 2.16522 4.29959 2.40902 4.09219 2.72167C3.88479 3.03432 3.77519 3.40165 3.77738 3.77683V62.3324C3.77738 62.8334 3.97638 63.3138 4.33062 63.668C4.68485 64.0223 5.1653 64.2213 5.66626 64.2213H64.524C64.8992 64.2235 65.2665 64.1139 65.5792 63.9065C65.8918 63.6991 66.1356 63.4032 66.2795 63.0567C66.4234 62.7102 66.4608 62.3287 66.387 61.9609C66.3132 61.593 66.1315 61.2555 65.8651 60.9913Z" fill="#D8B96B"/>
<path d="M45.3325 56.6673H52.888C53.8899 56.6673 54.8508 56.2693 55.5593 55.5608C56.2678 54.8523 56.6658 53.8914 56.6658 52.8895V16.4339L52.3214 8.44394C51.9854 7.86182 51.5001 7.37989 50.9157 7.04785C50.3314 6.71581 49.669 6.5457 48.9969 6.55505C48.3096 6.56051 47.6369 6.75336 47.051 7.11283C46.4652 7.4723 45.9886 7.98477 45.6725 8.59505L41.5547 16.4717V52.8895C41.5547 53.8914 41.9527 54.8523 42.6612 55.5608C43.3696 56.2693 44.3305 56.6673 45.3325 56.6673ZM45.3325 17.3784L48.9969 10.2573L52.888 17.3973V45.3339H45.3325V17.3784ZM45.3325 48.4128H52.888V53.0217H45.3325V48.4128Z" fill="#D8B96B"/>
</g>
<defs>
<clipPath id="clip0_79_99">
<rect width="68" height="68" fill="white"/>
</clipPath>
</defs>
</svg>
