<svg width="36" height="36" viewBox="0 0 36 36" fill="none" xmlns="http://www.w3.org/2000/svg">
<path d="M18.7462 13.998C16.1296 13.998 13.9942 16.1334 13.9942 18.75C13.9942 21.3666 16.1296 23.502 18.7462 23.502C21.3628 23.502 23.4981 21.3666 23.4981 18.75C23.4981 16.1334 21.3628 13.998 18.7462 13.998ZM32.9984 18.75C32.9984 16.7822 33.0162 14.8322 32.9057 12.8679C32.7952 10.5864 32.2747 8.56149 30.6064 6.89311C28.9345 5.22117 26.9132 4.70426 24.6317 4.59375C22.6639 4.48324 20.714 4.50106 18.7497 4.50106C16.7819 4.50106 14.832 4.48324 12.8677 4.59375C10.5862 4.70426 8.56142 5.22474 6.89307 6.89311C5.22116 8.56506 4.70426 10.5864 4.59375 12.8679C4.48324 14.8357 4.50106 16.7857 4.50106 18.75C4.50106 20.7143 4.48324 22.6678 4.59375 24.6321C4.70426 26.9136 5.22472 28.9385 6.89307 30.6069C8.56498 32.2788 10.5862 32.7957 12.8677 32.9062C14.8355 33.0168 16.7855 32.9989 18.7497 32.9989C20.7175 32.9989 22.6675 33.0168 24.6317 32.9062C26.9132 32.7957 28.9381 32.2753 30.6064 30.6069C32.2783 28.9349 32.7952 26.9136 32.9057 24.6321C33.0198 22.6678 32.9984 20.7178 32.9984 18.75V18.75ZM18.7462 26.0616C14.7001 26.0616 11.4347 22.7962 11.4347 18.75C11.4347 14.7038 14.7001 11.4384 18.7462 11.4384C22.7923 11.4384 26.0577 14.7038 26.0577 18.75C26.0577 22.7962 22.7923 26.0616 18.7462 26.0616ZM26.3571 12.8465C25.4124 12.8465 24.6495 12.0836 24.6495 11.1389C24.6495 10.1942 25.4124 9.43133 26.3571 9.43133C27.3018 9.43133 28.0647 10.1942 28.0647 11.1389C28.0649 11.3632 28.021 11.5854 27.9353 11.7927C27.8495 12 27.7238 12.1884 27.5652 12.347C27.4065 12.5056 27.2182 12.6314 27.0109 12.7171C26.8036 12.8028 26.5814 12.8468 26.3571 12.8465V12.8465Z" fill="#D8B96B"/>
</svg>
