<svg width="24" height="24" viewBox="0 0 24 24" fill="none" xmlns="http://www.w3.org/2000/svg">
<path d="M6.27016 1.5H17.7302C18.4887 1.5 19.2161 1.80132 19.7525 2.33767C20.2888 2.87403 20.5902 3.60148 20.5902 4.36V22.5H3.41016V4.36C3.41016 3.60148 3.71148 2.87403 4.24783 2.33767C4.78418 1.80132 5.51164 1.5 6.27016 1.5Z" stroke="#D8B96B" stroke-width="1.91" stroke-miterlimit="10"/>
<path d="M12.0005 18.6806C14.6349 18.6806 16.7705 16.545 16.7705 13.9106C16.7705 11.2762 14.6349 9.14062 12.0005 9.14062C9.36607 9.14062 7.23047 11.2762 7.23047 13.9106C7.23047 16.545 9.36607 18.6806 12.0005 18.6806Z" stroke="#D8B96B" stroke-width="1.91" stroke-miterlimit="10"/>
<path d="M6.26953 5.32031H11.0495" stroke="#D8B96B" stroke-width="1.91" stroke-miterlimit="10"/>
<path d="M15.8203 5.32031H17.7303" stroke="#D8B96B" stroke-width="1.91" stroke-miterlimit="10"/>
<path d="M12.9492 5.32031H14.8592" stroke="#D8B96B" stroke-width="1.91" stroke-miterlimit="10"/>
<path d="M7.23047 13.9093C12.0005 11.0493 12.9505 15.8193 16.7705 13.9093" stroke="#D8B96B" stroke-width="1.91" stroke-miterlimit="10"/>
</svg>
