<svg width="24" height="24" viewBox="0 0 24 24" fill="none" xmlns="http://www.w3.org/2000/svg">
<g clip-path="url(#clip0_79_4)">
<path d="M2.44922 23.4498V20.5898" stroke="#D8B96B" stroke-width="1.91" stroke-miterlimit="10"/>
<path d="M22.5 15.8203H1.5V20.5903H22.5V15.8203Z" stroke="#D8B96B" stroke-width="1.91" stroke-miterlimit="10"/>
<path d="M6.51922 11H17.5192C18.5987 11 19.6339 11.4288 20.3971 12.1921C21.1604 12.9553 21.5892 13.9906 21.5892 15.07V15.77H2.44922V15.07C2.44922 13.9906 2.87802 12.9553 3.64129 12.1921C4.40457 11.4288 5.43979 11 6.51922 11Z" stroke="#D8B96B" stroke-width="1.91" stroke-miterlimit="10"/>
<path d="M7.22937 7.23049H9.13938C9.51496 7.23049 9.88686 7.30446 10.2338 7.44819C10.5808 7.59192 10.8961 7.80259 11.1617 8.06816C11.4273 8.33374 11.6379 8.64902 11.7817 8.99601C11.9254 9.343 11.9994 9.71491 11.9994 10.0905V11.0905H4.35938V10.0905C4.35937 9.71406 4.43368 9.34134 4.57803 8.9937C4.72239 8.64605 4.93395 8.33032 5.20058 8.06462C5.46722 7.79891 5.78368 7.58845 6.13183 7.44531C6.47998 7.30217 6.85295 7.22917 7.22937 7.23049Z" stroke="#D8B96B" stroke-width="1.91" stroke-miterlimit="10"/>
<path d="M14.86 7.23047H16.77C17.5285 7.23047 18.256 7.53179 18.7923 8.06814C19.3287 8.6045 19.63 9.33195 19.63 10.0905V11.0905H12V10.0905C12 9.33195 12.3013 8.6045 12.8377 8.06814C13.374 7.53179 14.1015 7.23047 14.86 7.23047Z" stroke="#D8B96B" stroke-width="1.91" stroke-miterlimit="10"/>
<path d="M19.6294 3.41016H4.35938V11.0502H19.6294V3.41016Z" stroke="#D8B96B" stroke-width="1.91" stroke-miterlimit="10"/>
<path d="M21.5508 23.4498V20.5898" stroke="#D8B96B" stroke-width="1.91" stroke-miterlimit="10"/>
<path d="M4.35938 0.550781V3.41078" stroke="#D8B96B" stroke-width="1.91" stroke-miterlimit="10"/>
<path d="M19.6406 0.550781V3.41078" stroke="#D8B96B" stroke-width="1.91" stroke-miterlimit="10"/>
</g>
<defs>
<clipPath id="clip0_79_4">
<rect width="24" height="24" fill="white"/>
</clipPath>
</defs>
</svg>
