<svg width="24" height="24" viewBox="0 0 24 24" fill="none" xmlns="http://www.w3.org/2000/svg">
<g clip-path="url(#clip0_79_61)">
<path d="M11.77 10.0813C11.8301 10.3697 12.0641 10.5948 12.3562 10.6391C12.6461 10.6831 12.9418 10.5337 13.0792 10.2749C13.2173 10.0149 13.1776 9.69062 12.9804 9.47171C12.7836 9.25323 12.4613 9.18282 12.1905 9.29476C11.8817 9.42235 11.709 9.75526 11.77 10.0813Z" fill="#D8B96B"/>
<path d="M17.5217 10.0815C17.5736 10.3587 17.8024 10.5804 18.0771 10.6342C18.3698 10.6916 18.676 10.5495 18.8226 10.2902C18.9732 10.024 18.9314 9.68083 18.7203 9.4592C18.523 9.25206 18.211 9.18554 17.9464 9.29298C17.6396 9.41753 17.454 9.75536 17.5217 10.0815Z" fill="#D8B96B"/>
<path d="M23.2969 7.71172H23.2509V6.64062C23.2509 4.70211 21.6738 3.125 19.7353 3.125H14.8125C13.9236 3.125 13.0752 3.45753 12.4235 4.06138C12.2672 4.20622 12.1259 4.36377 12 4.53134C11.8747 4.36475 11.7345 4.20805 11.5793 4.06391C10.9272 3.45847 10.0778 3.125 9.1875 3.125H4.26469C2.32617 3.125 0.749062 4.70211 0.749062 6.64062V7.71172H0.703125C0.314812 7.71172 0 8.02653 0 8.41484V17.804C0 18.1923 0.314812 18.5071 0.703125 18.5071H1.68375V20.17C1.68375 20.5583 1.99856 20.8731 2.38687 20.8731H5.20683C5.59514 20.8731 5.90995 20.5583 5.90995 20.17V18.5071H18.09V20.17C18.09 20.5583 18.4048 20.8731 18.7931 20.8731H21.6131C22.0014 20.8731 22.3162 20.5583 22.3162 20.17V18.5071H23.2969C23.6852 18.5071 24 18.1923 24 17.804V8.41484C24 8.02653 23.6852 7.71172 23.2969 7.71172ZM14.8125 4.53125H19.7353C20.8985 4.53125 21.8447 5.47752 21.8447 6.64062V7.71294C21.6364 7.7172 21.4346 7.74819 21.2425 7.8027L19.6804 6.24064C18.8702 5.43045 17.552 5.4305 16.7419 6.24064L15.3348 7.64773L13.9277 6.24064C13.65 5.96295 13.3026 5.77569 12.9317 5.68883C13.2831 5.0015 14.0014 4.53125 14.8125 4.53125ZM4.49559 12.8673H9.1875C10.1101 12.8673 10.8958 13.463 11.1814 14.2898H4.49559V12.8673ZM11.9835 7.23505C12.0554 7.16323 12.1396 7.10994 12.2339 7.07666C12.234 7.07666 12.234 7.07661 12.234 7.07661C12.4769 6.99088 12.7514 7.05317 12.9333 7.23505L14.3502 8.65194C13.7507 9.40564 13.7507 10.4824 14.3502 11.2362L14.0385 11.548C13.2648 11.7226 12.5866 12.1521 12.0985 12.7445C12.0574 12.7183 12.0186 12.6881 11.9835 12.6531L9.74944 10.419C9.62259 10.2922 9.5527 10.1235 9.5527 9.94409C9.5527 9.7647 9.62259 9.59605 9.74944 9.4692L11.9835 7.23505ZM17.7362 7.23505C17.9981 6.97316 18.4242 6.97325 18.6861 7.23505L20.043 8.59203C19.7066 9.00383 19.5044 9.52934 19.5044 10.1013V11.461H16.5442L15.5021 10.419C15.2403 10.1571 15.2403 9.731 15.5021 9.46916L17.7362 7.23505ZM14.8125 12.8673H19.5044V14.2898H12.8186C13.1042 13.463 13.8899 12.8673 14.8125 12.8673ZM4.26469 4.53125H9.1875C10.1341 4.53125 10.9531 5.17044 11.2116 6.04817C11.1337 6.10681 11.0592 6.17056 10.9891 6.24069L8.75503 8.47475C8.36255 8.86719 8.14641 9.389 8.14641 9.94405C8.14641 10.499 8.36255 11.0209 8.75503 11.4133L8.8027 11.461H4.49559V10.1013C4.49559 8.8002 3.45019 7.73942 2.15531 7.71298V6.64067C2.15531 5.47752 3.10158 4.53125 4.26469 4.53125ZM4.50375 19.4668H3.09V18.5071H4.50375V19.4668ZM20.91 19.4668H19.4963V18.5071H20.91V19.4668ZM1.40625 17.1009V9.11797H2.106C2.6482 9.11797 3.08934 9.55911 3.08934 10.1013V14.9929C3.08934 15.3812 3.40416 15.696 3.79247 15.696H20.2075C20.5958 15.696 20.9107 15.3812 20.9107 14.9929V10.1013C20.9107 9.55911 21.3518 9.11797 21.894 9.11797H22.5938V17.1009H1.40625Z" fill="#D8B96B"/>
</g>
<defs>
<clipPath id="clip0_79_61">
<rect width="24" height="24" fill="white"/>
</clipPath>
</defs>
</svg>
