<svg width="68" height="68" viewBox="0 0 68 68" fill="none" xmlns="http://www.w3.org/2000/svg">
<path d="M33.9974 15.0592C34.6825 15.0592 35.3396 14.7871 35.8241 14.3026C36.3086 13.8181 36.5807 13.1611 36.5807 12.4759C36.5807 11.7908 36.3086 11.1337 35.8241 10.6492C35.3396 10.1647 34.6825 9.89258 33.9974 9.89258C33.3123 9.89258 32.6552 10.1647 32.1707 10.6492C31.6862 11.1337 31.4141 11.7908 31.4141 12.4759C31.4141 13.1611 31.6862 13.8181 32.1707 14.3026C32.6552 14.7871 33.3123 15.0592 33.9974 15.0592Z" fill="#D8B96B"/>
<path fill-rule="evenodd" clip-rule="evenodd" d="M33.6805 3.03121L33.6667 3.03466L33.6271 3.04155L33.4842 3.0691L32.9503 3.17588C32.4922 3.26888 31.8395 3.40666 31.0593 3.58405C29.5007 3.93882 27.4082 4.45721 25.3071 5.10649C23.2266 5.74888 21.048 6.54799 19.3585 7.48316C18.5181 7.94816 17.7121 8.4941 17.0972 9.13649C16.4858 9.77199 15.9141 10.6624 15.9141 11.7801C15.9141 14.7854 16.758 16.9864 17.6501 18.4623C18.0892 19.1891 18.5353 19.7316 18.8866 20.1036C18.9038 20.3017 18.9297 20.5238 18.9779 20.7649C19.1518 21.6708 19.5876 22.8247 20.5865 23.9459C20.1108 25.9682 20.0986 28.0719 20.5509 30.0996C21.0032 32.1273 21.9081 34.0265 23.1981 35.655C24.488 37.2836 26.1295 38.5993 27.9998 39.5038C29.8701 40.4083 31.9207 40.8781 33.9983 40.8781C36.0758 40.8781 38.1264 40.4083 39.9967 39.5038C41.867 38.5993 43.5085 37.2836 44.7985 35.655C46.0884 34.0265 46.9934 32.1273 47.4456 30.0996C47.8979 28.0719 47.8857 25.9682 47.4101 23.9459C48.4072 22.8247 48.843 21.6725 49.0169 20.7649C49.0651 20.5238 49.0927 20.3017 49.1082 20.1036C49.5772 19.6018 49.9917 19.0516 50.3447 18.4623C51.2386 16.9864 52.0807 14.7854 52.0807 11.7801C52.0807 10.6624 51.509 9.77199 50.8976 9.13649C50.2827 8.4941 49.4767 7.94816 48.6363 7.48316C46.9468 6.54799 44.7682 5.74888 42.686 5.10649C40.7886 4.52817 38.8705 4.02034 36.9355 3.58405C36.1297 3.40042 35.3213 3.22818 34.5106 3.06738L34.3677 3.04155L34.3281 3.03466L34.3143 3.03121L33.9974 2.97266L33.6805 3.03121ZM33.9974 24.5297C37.7983 24.5297 40.3507 24.0372 42.0574 23.3965C43.5023 22.854 44.3445 22.2064 44.8302 21.6605C45.0076 21.4624 45.1471 21.2695 45.2573 21.0853H22.7375C22.8477 21.2695 22.9872 21.4642 23.1629 21.6605C23.652 22.2064 24.4925 22.854 25.9357 23.3965C27.6441 24.0372 30.1965 24.5297 33.9974 24.5297ZM46.6936 17.6408H21.3012C21.0372 17.3429 20.8014 17.0212 20.5968 16.6798C20.0061 15.7033 19.3654 14.124 19.3585 11.8163C19.416 11.7057 19.4917 11.6056 19.5824 11.52C19.8614 11.229 20.3333 10.8794 21.0273 10.497C22.4051 9.7341 24.3168 9.01766 26.3249 8.39593C28.1388 7.84437 29.9725 7.36009 31.8222 6.9441C32.5452 6.77955 33.2703 6.62453 33.9974 6.4791C34.0956 6.49632 34.2161 6.52216 34.3556 6.54971C34.7931 6.63927 35.42 6.7736 36.1726 6.9441C37.6812 7.28682 39.6807 7.78282 41.6699 8.39766C43.678 9.01766 45.5897 9.7341 46.9675 10.497C47.6615 10.8794 48.1334 11.229 48.4141 11.52C48.5691 11.6837 48.6208 11.7801 48.6363 11.8163C48.6294 14.124 47.9887 15.7033 47.3963 16.6798C47.1927 17.0214 46.9574 17.3432 46.6936 17.6408ZM23.6641 27.113C23.6641 26.803 23.6778 26.4965 23.7037 26.1934C26.008 27.2732 29.3078 27.9742 33.9974 27.9742C38.036 27.9742 41.0396 27.4575 43.2664 26.6222C43.6281 26.4879 43.9691 26.3432 44.2911 26.1917C44.4131 27.5806 44.2526 28.9799 43.8195 30.3053C43.3864 31.6306 42.6895 32.8546 41.7709 33.9035C40.8522 34.9525 39.7308 35.8046 38.4741 36.4087C37.2174 37.0127 35.8514 37.3562 34.4585 37.4184C33.0656 37.4807 31.6744 37.2603 30.3689 36.7707C29.0634 36.2811 27.8704 35.5323 26.8619 34.5695C25.8534 33.6067 25.0501 32.4497 24.5006 31.1683C23.951 29.8868 23.6664 28.5074 23.6641 27.113Z" fill="#D8B96B"/>
<path d="M49.4991 51.2246C50.6479 52.3733 52.9436 53.5203 52.9436 53.5203C52.9436 53.5203 51.7415 58.1135 49.4991 58.1135C47.2568 58.1135 46.0547 53.5203 46.0547 53.5203C46.0547 53.5203 48.3504 52.3733 49.4991 51.2246Z" fill="#D8B96B"/>
<path fill-rule="evenodd" clip-rule="evenodd" d="M27.9722 46.0577C27.9722 45.1442 28.3351 44.2681 28.9811 43.6221C29.627 42.9762 30.5031 42.6133 31.4167 42.6133H36.5833C37.4969 42.6133 38.373 42.9762 39.0189 43.6221C39.6649 44.2681 40.0278 45.1442 40.0278 46.0577V48.4378C40.0277 48.9986 39.8907 49.5509 39.6287 50.0468C39.3667 50.5426 38.9876 50.9669 38.5243 51.2829L38.7189 52.2577L44.6296 45.0812C44.8288 44.8392 45.0903 44.656 45.3859 44.5516C45.6815 44.4472 46 44.4255 46.307 44.4888C50.7228 45.405 55.2402 46.7931 58.6984 48.6979C62.0429 50.5407 65 53.2153 65 56.9043V63.2799C65 63.7367 64.8186 64.1748 64.4956 64.4977C64.1726 64.8207 63.7345 65.0022 63.2778 65.0022H4.72222C4.26546 65.0022 3.82741 64.8207 3.50443 64.4977C3.18145 64.1748 3 63.7367 3 63.2799V56.9043C3 53.2359 6.01389 50.5786 9.35845 48.7513C12.8304 46.8517 17.3496 45.4532 21.7119 44.5249C22.0204 44.4595 22.3409 44.4799 22.6385 44.5841C22.9361 44.6883 23.1994 44.8721 23.3997 45.1157L29.3069 52.2904L29.4929 51.295C29.0245 50.9796 28.6409 50.5539 28.3757 50.0554C28.1105 49.5569 27.9719 49.0008 27.9722 48.4361V46.0577ZM34.8956 50.7008L35.8927 55.6901L34 57.9876L32.1676 55.7624L33.1096 50.6767C33.1778 50.3093 33.1247 49.9296 32.9582 49.595C32.7916 49.2604 32.5208 48.989 32.1865 48.8219L31.4167 48.4378V46.0577H36.5833V48.4378L35.8135 48.8236C35.4756 48.9924 35.2025 49.2675 35.0363 49.6067C34.8701 49.946 34.82 50.3304 34.8938 50.7008H34.8956ZM35.5207 61.5577L46.6187 48.0813C50.5109 48.9528 54.243 50.1773 57.0347 51.7152C60.1847 53.4495 61.5556 55.2423 61.5556 56.9043V61.5577H35.5224H35.5207ZM21.4088 48.1192L32.4776 61.5577H6.44444V56.9043C6.44444 55.2957 7.82222 53.5167 11.0101 51.7721C13.8224 50.2341 17.5614 49.0027 21.4123 48.1192H21.4088Z" fill="#D8B96B"/>
</svg>
