<svg width="36" height="36" viewBox="0 0 36 36" fill="none" xmlns="http://www.w3.org/2000/svg">
<path d="M31.2708 22.2832L24.6459 19.3146L24.6277 19.3061C24.2837 19.159 23.9086 19.1 23.5361 19.1344C23.1636 19.1687 22.8056 19.2954 22.4944 19.503C22.4577 19.5272 22.4225 19.5535 22.3889 19.5817L18.9661 22.4997C16.7977 21.4464 14.5589 19.2246 13.5056 17.0842L16.4278 13.6094C16.456 13.5742 16.4827 13.5391 16.508 13.5011C16.7111 13.1908 16.8343 12.835 16.8667 12.4655C16.8991 12.096 16.8396 11.7243 16.6936 11.3833V11.3664L13.7166 4.73034C13.5236 4.28493 13.1917 3.91389 12.7704 3.67261C12.3492 3.43133 11.8612 3.33275 11.3794 3.39159C9.47388 3.64233 7.7248 4.57814 6.45883 6.02422C5.19285 7.47031 4.49657 9.32778 4.50001 11.2497C4.50001 22.4153 13.5844 31.4997 24.75 31.4997C26.6719 31.5032 28.5294 30.8069 29.9755 29.5409C31.4216 28.2749 32.3574 26.5259 32.6081 24.6203C32.6671 24.1386 32.5687 23.6508 32.3277 23.2296C32.0867 22.8084 31.7159 22.4764 31.2708 22.2832ZM24.75 29.2497C19.9777 29.2445 15.4024 27.3464 12.0278 23.9719C8.65332 20.5974 6.75522 16.022 6.75001 11.2497C6.74472 9.8765 7.23946 8.5483 8.14183 7.51318C9.0442 6.47805 10.2925 5.80678 11.6536 5.62472C11.6531 5.63033 11.6531 5.63598 11.6536 5.64159L14.6067 12.251L11.7 15.73C11.6705 15.764 11.6437 15.8002 11.6199 15.8383C11.4082 16.163 11.2841 16.5369 11.2595 16.9237C11.2348 17.3106 11.3105 17.6972 11.4792 18.0461C12.7533 20.6519 15.3788 23.2577 18.0127 24.5303C18.3642 24.6975 18.753 24.7706 19.1412 24.7425C19.5295 24.7144 19.9037 24.586 20.2275 24.37C20.2636 24.3457 20.2984 24.3194 20.3316 24.2913L23.7502 21.3747L30.3595 24.3349H30.375C30.1952 25.6979 29.5249 26.9487 28.4896 27.8533C27.4543 28.7579 26.1248 29.2544 24.75 29.2497Z" fill="#D8B96B"/>
</svg>
